<?xml version="1.0" standalone="no"?>
<!DOCTYPE svg PUBLIC "-//W3C//DTD SVG 20010904//EN"
 "http://www.w3.org/TR/2001/REC-SVG-20010904/DTD/svg10.dtd">
<svg version="1.0" xmlns="http://www.w3.org/2000/svg"
 width="380.000000pt" height="245.000000pt" viewBox="0 0 380.000000 245.000000"
 preserveAspectRatio="xMidYMid meet">

<g transform="translate(0.000000,245.000000) scale(0.100000,-0.100000)"
fill="#000000" stroke="none">
<path d="M1843 2021 c-100 -27 -210 -80 -323 -156 -100 -66 -162 -122 -80 -71
67 41 236 120 305 142 46 15 90 19 190 19 121 0 134 -2 186 -27 70 -35 94 -61
124 -133 l23 -58 7 56 c14 108 -17 177 -98 219 -60 32 -232 36 -334 9z"/>
<path d="M1870 1892 c-23 -8 -22 -9 16 -15 128 -21 183 -147 138 -321 -102
-393 -630 -867 -966 -866 -94 1 -147 23 -185 81 -25 38 -28 51 -28 123 0 45 3
97 7 116 l7 35 -15 -29 c-59 -107 -91 -307 -64 -392 30 -95 98 -142 214 -151
171 -13 433 104 663 296 66 55 69 56 106 47 26 -7 52 -6 80 1 23 6 43 10 44 9
1 -1 -13 -90 -32 -197 -19 -107 -35 -200 -35 -206 0 -10 33 -13 133 -13 l133
0 28 177 c16 98 31 180 33 183 2 2 84 -78 181 -178 l177 -183 198 -2 c108 -1
196 1 195 5 -2 4 -111 105 -243 224 -132 119 -241 220 -243 224 -3 7 37 34
403 270 105 67 194 126 200 131 5 5 -69 9 -181 9 l-190 0 -234 -174 c-129 -96
-236 -173 -237 -172 -1 1 12 78 31 171 l32 170 -77 3 -78 3 40 82 c117 246
100 444 -45 519 -42 21 -163 33 -206 20z"/>
<path d="M1143 1684 c-34 -17 -77 -66 -92 -106 -11 -30 -135 -737 -130 -742 7
-7 32 -8 135 -7 l100 1 44 250 c24 138 47 249 51 248 3 -2 75 -76 159 -165 84
-90 158 -163 164 -163 6 0 51 41 99 91 l89 91 -68 71 c-37 40 -102 108 -143
152 -206 218 -248 261 -271 277 -31 22 -95 23 -137 2z"/>
<path d="M1859 1688 c-5 -16 -86 -474 -83 -476 1 -2 25 27 53 64 81 111 154
272 168 371 l6 43 -72 0 c-39 0 -71 -1 -72 -2z"/>
</g>

</svg>
